HIERARCHY
ROOT Hips
{
	OFFSET 0 0 0
	CHANNELS 6 Xposition Yposition Zposition Zrotation Yrotation Xrotation
	JOINT LeftThigh
	{
		OFFSET 8.209213 0 -5.776854
		CHANNELS 3 Zrotation Yrotation Xrotation
		JOINT LeftLeg
		{
			OFFSET 0 0 -41.350112
			CHANNELS 3 Zrotation Yrotation Xrotation
			JOINT LeftFoot
			{
				OFFSET 0 0 -38.420225
				CHANNELS 3 Zrotation Yrotation Xrotation
				End Site
				{
					OFFSET 0 -13.011281 -4.889596
				}
			}
		}
	}
	JOINT RightThigh
	{
		OFFSET -8.209213 0 -5.776854
		CHANNELS 3 Zrotation Yrotation Xrotation
		JOINT RightLeg
		{
			OFFSET 0 0 -41.350112
			CHANNELS 3 Zrotation Yrotation Xrotation
			JOINT RightFoot
			{
				OFFSET 0 0 -38.420225
				CHANNELS 3 Zrotation Yrotation Xrotation
				End Site
				{
					OFFSET 0 -13.011281 -4.889596
				}
			}
		}
	}
	JOINT SpineLow
	{
		OFFSET 0 0 4.606742
		CHANNELS 3 Zrotation Yrotation Xrotation
		JOINT SpineMid
		{
			OFFSET 0 0 12.592067
			CHANNELS 3 Zrotation Yrotation Xrotation
			JOINT Chest
			{
				OFFSET 0 0 12.592067
				CHANNELS 3 Zrotation Yrotation Xrotation
				JOINT LeftShoulder
				{
					OFFSET 7.370787 1.382022 9.213483
					CHANNELS 3 Zrotation Yrotation Xrotation
					JOINT LeftArm
					{
						OFFSET 8.937079 0 4.146067
						CHANNELS 3 Zrotation Yrotation Xrotation
						JOINT LeftForearm
						{
							OFFSET 0 0 25.158337
							CHANNELS 3 Zrotation Yrotation Xrotation
							JOINT LeftHand
							{
								OFFSET 0 0 24.597236
								CHANNELS 3 Zrotation Yrotation Xrotation
							}
						}
					}
				}
				JOINT RightShoulder
				{
					OFFSET -7.370787 1.382022 9.213483
					CHANNELS 3 Zrotation Yrotation Xrotation
					JOINT RightArm
					{
						OFFSET -8.937079 0 4.146067
						CHANNELS 3 Zrotation Yrotation Xrotation
						JOINT RightForearm
						{
							OFFSET 0 0 -25.158337
							CHANNELS 3 Zrotation Yrotation Xrotation
							JOINT RightHand
							{
								OFFSET 0 0 -24.597236
								CHANNELS 3 Zrotation Yrotation Xrotation
							}
						}
					}
				}
				JOINT Neck
				{
					OFFSET 0 0 14.741573
					CHANNELS 3 Zrotation Yrotation Xrotation
					JOINT Head
					{
						OFFSET 0 0 11.05618
						CHANNELS 3 Zrotation Yrotation Xrotation
						End Site
						{
							OFFSET 0 0 7.325843
						}
					}
				}
			}
		}
	}
}
MOTION
Frames: 16
Frame Time: 0.01
-11.161943 89.507566016556 -9.007151 179.296925 28.316829 86.125868 0.474764 -11.379448 3.432317 -1.999286 1.577988 -1.372477 1.733174 -0.842148 -0.054195 -6.172623 13.488555 3.73967 -12.788991 0.53993 2.591504 0.480999 0.74267 0.491129 -0.511684 0.175808 -0.71344 -1.403705 0.465389 -1.953765 -1.403705 0.465389 -1.953764 -5.580874 9.281143 20.583546 101.194916 35.862311 157.904828 -21.35956 9.080682 39.377261 75.454989 -5.71034 -2.444822 2.167933 -11.876054 14.587857 68.569603 42.212587 -1.267941 -18.387142 4.329124 -35.330507 79.540664 -16.406848 10.775993 0.700348 0.219184 1.563916 0.524704 0.166182 1.172687
-11.127085 89.4980211054403 -8.954452 179.301258 28.320058 86.115519 0.481686 -11.40872 3.411397 -1.949845 1.554331 -1.346757 1.687917 -0.82161 -0.04548 -6.162454 13.471154 3.74069 -12.798772 0.535529 2.597763 0.509089 0.72925 0.490431 -0.514688 0.171613 -0.710146 -1.411768 0.453905 -1.944693 -1.411768 0.453905 -1.944693 -5.47974 9.279203 20.549436 101.218806 35.8881 157.895181 -21.393266 9.137648 39.421264 75.485097 -5.668786 -2.351378 2.232091 -11.888114 14.578064 68.682939 42.198004 -1.206791 -18.420798 4.325543 -35.339521 79.548939 -16.321317 10.769066 0.746883 0.225563 1.563222 0.559589 0.171084 1.172141
-11.122096 89.4965812387585 -8.928401 179.318072 28.334356 86.118611 0.427037 -11.42888 3.407113 -1.89337 1.544892 -1.327935 1.691578 -0.820246 -0.039193 -6.146635 13.446996 3.736238 -12.797636 0.525599 2.610245 0.510907 0.722106 0.496085 -0.509348 0.169636 -0.710807 -1.39712 0.448646 -1.946421 -1.39712 0.448646 -1.946421 -5.502386 9.262654 20.552959 101.188592 35.88952 157.864953 -21.42424 9.174173 39.466355 75.432297 -5.634417 -2.325994 2.211049 -11.90651 14.593409 68.658656 42.223468 -1.227947 -18.426876 4.320831 -35.3683 79.583755 -16.319388 10.739712 0.750005 0.22647 1.580886 0.561922 0.171794 1.185387
-11.096283 89.4889091224924 -8.880597 179.32792 28.341015 86.112656 0.373813 -11.453617 3.401246 -1.812503 1.517621 -1.311543 1.663018 -0.798823 -0.021887 -6.156835 13.434483 3.736904 -12.774159 0.502159 2.606259 0.538715 0.714914 0.500265 -0.511349 0.163455 -0.708577 -1.402391 0.431741 -1.940205 -1.402391 0.431741 -1.940205 -5.433297 9.264693 20.53432 101.265839 35.949644 157.876649 -21.419713 9.233009 39.519484 75.476928 -5.621362 -2.225099 2.271906 -11.914366 14.586191 68.758577 42.20998 -1.157608 -18.442935 4.311566 -35.405926 79.581854 -16.275568 10.757992 0.782353 0.238369 1.590096 0.586149 0.180814 1.192267
-11.09689 89.4877609820611 -8.854181 179.341966 28.354043 86.112671 0.291175 -11.467694 3.404769 -1.741484 1.509376 -1.297939 1.674455 -0.800482 -0.017482 -6.15739 13.417059 3.732565 -12.745775 0.487002 2.616293 0.536083 0.712281 0.503752 -0.505644 0.162668 -0.709354 -1.386779 0.429741 -1.942277 -1.386779 0.429741 -1.942277 -5.46493 9.239306 20.541811 101.229531 35.957134 157.841302 -21.447126 9.276342 39.569614 75.4485 -5.580368 -2.195459 2.250382 -11.941216 14.600345 68.726322 42.237743 -1.175717 -18.441286 4.304628 -35.439758 79.610941 -16.280907 10.734287 0.781051 0.235362 1.612261 0.585171 0.178584 1.208895
-11.07523 89.4812812614804 -8.81949 179.348829 28.327683 86.105473 0.148473 -11.478679 3.42095 -1.610625 1.482788 -1.295746 1.643518 -0.789881 -0.0053 -6.222767 13.404783 3.731061 -12.692408 0.47056 2.614558 0.545255 0.713725 0.509216 -0.507191 0.156828 -0.708663 -1.390831 0.41375 -1.940274 -1.390831 0.41375 -1.940274 -5.445158 9.252549 20.537759 101.295269 36.023145 157.849478 -21.484922 9.326196 39.582594 75.5093 -5.569775 -2.062085 2.261971 -11.935085 14.605384 68.785521 42.229005 -1.121576 -18.444802 4.292732 -35.479958 79.614274 -16.220541 10.724161 0.786576 0.250018 1.629521 0.589269 0.189613 1.221819
-11.077263 89.4802481816896 -8.79686 179.358063 28.336965 86.10955 0.067379 -11.484538 3.422403 -1.537382 1.471727 -1.289725 1.650436 -0.792361 -0.000998 -6.249539 13.395952 3.715091 -12.644053 0.456317 2.625059 0.544915 0.708233 0.512291 -0.50368 0.155908 -0.710754 -1.381221 0.411295 -1.945948 -1.381221 0.411295 -1.945948 -5.465941 9.235386 20.542757 101.253666 36.029835 157.816514 -21.503813 9.352244 39.613867 75.476175 -5.55461 -1.987619 2.250674 -11.949968 14.624129 68.744019 42.260009 -1.149236 -18.44766 4.283479 -35.518468 79.635866 -16.22808 10.68339 0.788063 0.248437 1.654552 0.590379 0.188463 1.240594
-11.058806 89.4741330372411 -8.773293 179.356402 28.328968 86.102094 -0.038391 -11.483781 3.44143 -1.44355 1.440913 -1.29279 1.632734 -0.778254 0.004276 -6.312992 13.390477 3.707201 -12.604902 0.446448 2.634393 0.608576 0.695381 0.494408 -0.507709 0.150619 -0.711267 -1.392078 0.39671 -1.947263 -1.392078 0.39671 -1.947263 -5.427074 9.259664 20.537232 101.363798 36.093675 157.84063 -21.493961 9.383175 39.63606 75.516551 -5.557712 -1.858947 2.310326 -11.946288 14.62705 68.845167 42.248935 -1.091419 -18.48411 4.279296 -35.524432 79.636992 -16.177554 10.668713 0.811098 0.260675 1.679887 0.607611 0.197738 1.259571
-11.057991 89.4732231354614 -8.755172 179.363756 28.323298 86.101834 -0.101404 -11.487056 3.445947 -1.387114 1.429159 -1.293654 1.633988 -0.7809 0.006849 -6.373406 13.389642 3.694172 -12.546144 0.427617 2.640908 0.614624 0.693411 0.494952 -0.505704 0.150133 -0.711464 -1.386586 0.395437 -1.94778 -1.386586 0.395437 -1.947779 -5.458717 9.255036 20.532803 101.319424 36.109918 157.799312 -21.503888 9.406406 39.651067 75.47818 -5.556857 -1.774429 2.294405 -11.955405 14.634816 68.816125 42.279413 -1.119449 -18.485541 4.272045 -35.551375 79.67223 -16.184287 10.62001 0.806931 0.259833 1.703737 0.604478 0.197126 1.27746
-11.025232 89.4656401610176 -8.731404 179.35864 28.294359 86.081928 -0.181993 -11.487071 3.476731 -1.281528 1.397807 -1.310237 1.59088 -0.765698 0.019618 -6.476298 13.393023 3.692302 -12.4677 0.40567 2.630997 0.651775 0.689586 0.494262 -0.511108 0.147915 -0.708666 -1.401273 0.389274 -1.940115 -1.401273 0.389274 -1.940115 -5.386155 9.248481 20.511761 101.366811 36.173478 157.822087 -21.47864 9.443804 39.644635 75.497619 -5.575139 -1.684336 2.314767 -11.957983 14.627405 68.931723 42.267197 -1.054939 -18.493344 4.25686 -35.561002 79.629406 -16.196737 10.686228 0.817365 0.266705 1.725571 0.612276 0.202339 1.293822
-11.018992 89.4640033520507 -8.712091 179.368473 28.283423 86.07538 -0.211447 -11.500883 3.482087 -1.258284 1.392225 -1.311472 1.589609 -0.766451 0.020864 -6.542738 13.389452 3.688858 -12.407366 0.389919 2.631569 0.656703 0.689062 0.494635 -0.505477 0.149483 -0.712014 -1.385949 0.393655 -1.949267 -1.385949 0.393655 -1.949266 -5.45251 9.221401 20.54874 101.317341 36.201945 157.793494 -21.497226 9.463891 39.644035 75.429615 -5.610757 -1.638555 2.264768 -11.981065 14.64972 68.90454 42.287712 -1.081814 -18.485467 4.248019 -35.574692 79.660067 -16.211361 10.674336 0.791905 0.255748 1.767196 0.593194 0.194103 1.325066
-10.982241 89.4554738390847 -8.670895 179.376124 28.291026 86.076058 -0.227398 -11.528649 3.489409 -1.159947 1.368906 -1.334479 1.535355 -0.742872 0.037712 -6.575153 13.364483 3.672642 -12.369973 0.390091 2.62624 0.692833 0.688601 0.492097 -0.504143 0.145702 -0.717569 -1.382223 0.383244 -1.964363 -1.382223 0.383244 -1.964362 -5.450873 9.229724 20.596503 101.373773 36.274347 157.807613 -21.472661 9.507788 39.658635 75.388048 -5.632261 -1.650012 2.296149 -11.978851 14.677678 68.998892 42.274055 -1.044653 -18.516522 4.240026 -35.543764 79.643012 -16.175592 10.72031 0.791774 0.256316 1.812846 0.593075 0.194588 1.359303
-10.977145 89.4537960135128 -8.652626 179.385839 28.291996 86.08245 -0.215386 -11.549123 3.477428 -1.170003 1.371814 -1.337455 1.53523 -0.744014 0.038184 -6.62173 13.35426 3.658821 -12.318421 0.379051 2.625343 0.698088 0.687568 0.493366 -0.501609 0.145899 -0.724236 -1.375341 0.38372 -1.982576 -1.375341 0.38372 -1.982576 -5.486819 9.217306 20.645046 101.309725 36.304911 157.772833 -21.534138 9.531532 39.643637 75.304621 -5.667834 -1.639963 2.2771 -11.987309 14.719316 68.972032 42.298308 -1.084141 -18.522994 4.232897 -35.552488 79.681252 -16.191281 10.71555 0.778836 0.250986 1.86287 0.583367 0.190616 1.396833
-10.948839 89.4465463940402 -8.611039 179.395577 28.298564 86.093097 -0.192873 -11.582995 3.458389 -1.114798 1.36116 -1.348848 1.480471 -0.727765 0.052872 -6.613893 13.321613 3.623193 -12.310238 0.390413 2.639328 0.723437 0.681097 0.492144 -0.499126 0.139307 -0.730678 -1.368389 0.365644 -2.000032 -1.368389 0.365644 -2.000032 -5.434604 9.227419 20.661613 101.246436 36.322114 157.770631 -21.560627 9.58175 39.624659 75.278888 -5.705492 -1.669104 2.284999 -11.973233 14.752525 69.067177 42.28684 -1.022712 -18.552349 4.227692 -35.546654 79.674327 -16.156074 10.744042 0.768018 0.265941 1.908577 0.575188 0.201857 1.431099
-10.944019 89.4443347669402 -8.591235 179.404327 28.289088 86.106358 -0.172018 -11.606463 3.430719 -1.149226 1.368461 -1.348168 1.481374 -0.726549 0.05558 -6.649606 13.306998 3.605065 -12.273325 0.384256 2.639125 0.725744 0.678958 0.4931 -0.49796 0.13915 -0.736638 -1.36523 0.365127 -2.016313 -1.36523 0.365127 -2.016312 -5.486164 9.21805 20.689727 101.214071 36.339157 157.756209 -21.633376 9.613246 39.59958 75.219322 -5.731072 -1.707027 2.267819 -11.982929 14.774081 69.050101 42.305661 -1.046978 -18.556803 4.224786 -35.551793 79.705768 -16.157785 10.732144 0.750159 0.265048 1.955215 0.561777 0.201189 1.466086
-10.912536 89.4347143038208 -8.548102 179.401988 28.242643 86.101788 -0.147358 -11.635563 3.402103 -1.173434 1.366008 -1.354033 1.447335 -0.711636 0.074265 -6.670098 13.289294 3.574671 -12.291022 0.394005 2.665267 0.764957 0.679419 0.490648 -0.51324 0.13805 -0.736037 -1.406956 0.361668 -2.014726 -1.406956 0.361668 -2.014726 -5.43428 9.21392 20.686361 101.249278 36.369309 157.780626 -21.684892 9.658685 39.582003 75.226127 -5.753652 -1.740842 2.372386 -11.99533 14.753846 69.131278 42.28333 -0.984334 -18.58824 4.232821 -35.510662 79.674901 -16.101211 10.765215 0.775188 0.266309 1.985475 0.580532 0.202253 1.488768
